<svg width="512" height="512" viewBox="0 0 512 512" fill="none" xmlns="http://www.w3.org/2000/svg">
  <rect width="512" height="512" rx="128" fill="#e60023"/>
  <path d="M256 100C169.8 100 100 169.8 100 256C100 321.4 140.2 377.3 197.8 400.9C195.4 384.7 194.2 355.2 198.8 335.7C203 318.1 226.2 219.8 226.2 219.8C226.2 219.8 219.1 205.6 219.1 184.8C219.1 152.1 238.1 128.2 260.6 128.2C279.8 128.2 289.1 142.6 289.1 159.9C289.1 179.2 276.8 208.1 270.4 234.3C265.1 256.2 281.4 274.3 302.9 274.3C342.1 274.3 372.4 233 372.4 173.8C372.4 120.7 334.2 83.2 256 83.2C161.4 83.2 105.8 154.2 105.8 243.6C105.8 261 110.1 274.6 118.8 286.9C121.3 290.4 121.7 292.4 120.9 295.6C118.4 305.8 112.5 329.8 111.2 335.2C109.4 342.4 103.8 344.6 96.9 341.4C63.6 325.9 45.4 278.4 45.4 237.9C45.4 152 113.8 62.4 266.3 62.4C389 62.4 466.6 149.7 466.6 248.8C466.6 374.4 394 464.3 312.9 464.3C279.7 464.3 249.2 447 238.8 428.1C238.8 428.1 220.8 496.4 216 512H216C228.8 512 242.1 512 256 512C397.4 512 512 397.4 512 256C512 114.6 397.4 0 256 0Z" fill="white" transform="scale(0.8) translate(64, 64)"/>
  <path d="M256 90C164.4 90 90 164.4 90 256C90 326.3 133.1 386.4 195.4 411.3C193.3 394.4 193.1 366.5 197.6 347.3C201.6 330.4 226.3 226.3 226.3 226.3C226.3 226.3 219.3 212.3 219.3 192.1C219.3 160.2 237.8 136.9 261.2 136.9C281.1 136.9 290.7 151.8 290.7 169.6C290.7 189.6 278 219.6 271.4 246.7C265.8 269.4 282.8 288.1 305 288.1C345.5 288.1 376.5 245.4 376.5 184.2C376.5 129.5 336.8 91.1 256 91.1C160 91.1 101.4 163.1 101.4 252.1C101.4 271.5 108.9 292.1 121.7 303.4C125.1 306.4 125.7 308.2 124.6 312.3C122.3 321.4 114.3 354 112.5 361.3C110.1 371.1 103.8 373.8 94.6 369.5C64 355.2 45.4 307.7 45.4 258.8C45.4 162.9 116.8 68.3 268 68.3C389.2 68.3 466.6 154.5 466.6 248.8C466.6 370.4 384.8 464.3 306.4 464.3C281.6 464.3 258 451.4 250.3 433.8C250.3 433.8 234.2 494.8 229.4 513H256C397.4 513 512 398.4 512 257C512 115.6 397.4 1 256 1Z" fill="white" transform="scale(0.8) translate(64, 64)"/>
</svg>
